# xmcd
#
# Track frame offsets:
#	150
#	20780
#	35857
#	54410
#	69770
#	90017
#	109832
#	125390
#	142605
#	163195
#	178240
#	196740
#	212102
#	232365
#	252137
#	267702
#	296350
#
# Disc length: 3963 seconds
#
# Revision: 1
# Processed by: cddbd v1.5.1PL2 Copyright (c) Steve Scherf et al.
# Submitted via: audiograbber 1.83.01
#
DISCID=f70f7911
DTITLE=Various Artist - Sc3268
DYEAR=1900
DGENRE=Country
TTITLE0=Carson, Jeff - Real Life (I Never Was The Same Again)
TTITLE1=Morgan, Craig - I Want Us Back
TTITLE2=Yearwood, Trisha and Henley, Don - Inside Out
TTITLE3=Walker, Mike - Honey Do
TTITLE4=Tippin,, Aaron - Always Was
TTITLE5=Travis, Randy - Baptism (Live)
TTITLE6=Garner, Kristen - Let It Burn Down
TTITLE7=McBride, Martina - When God Fearin' Women Get The Blues
TTITLE8=Carson, Jeff - Real Life (I Never Was The Same Again)
TTITLE9=Morgan, Craig - I Want Us Back
TTITLE10=Yearwood, Trisha and Henley, Don - Inside Out
TTITLE11=Walker, Mike - Honey Do
TTITLE12=Tippin,, Aaron - Always Was
TTITLE13=Travis, Randy - Baptism (Live)
TTITLE14=Garner, Kristen - Let It Burn Down
TTITLE15=McBride, Martina - When God Fearin' Women Get The Blues
TTITLE16=Artist - Data Track
EXTD=
EXTT0=
EXTT1=
EXTT2=
EXTT3=
EXTT4=
EXTT5=
EXTT6=
EXTT7=
EXTT8=
EXTT9=
EXTT10=
EXTT11=
EXTT12=
EXTT13=
EXTT14=
EXTT15=
EXTT16=
PLAYORDER=
